<mxfile host="app.diagrams.net" agent="Mozilla/5.0 (Windows NT 10.0; Win64; x64) AppleWebKit/537.36 (KHTML, like Gecko) Chrome/129.0.0.0 Safari/537.36 Edg/129.0.0.0" version="24.7.6">
  <diagram name="第 1 页" id="Tzwkur7lOJkZ_2ZFb79T">
    <mxGraphModel dx="1041" dy="631" grid="1" gridSize="10" guides="1" tooltips="1" connect="1" arrows="1" fold="1" page="1" pageScale="1" pageWidth="827" pageHeight="1169" math="0" shadow="0">
      <root>
        <mxCell id="0" />
        <mxCell id="1" parent="0" />
        <mxCell id="YBwpSscH_KCri71rQ_eQ-1" value="开始" style="whiteSpace=wrap;strokeWidth=2;" vertex="1" parent="1">
          <mxGeometry x="408" y="20" width="47" height="34" as="geometry" />
        </mxCell>
        <mxCell id="YBwpSscH_KCri71rQ_eQ-2" value="用户属性存在值吗?" style="rhombus;strokeWidth=2;whiteSpace=wrap;" vertex="1" parent="1">
          <mxGeometry x="340" y="104" width="183" height="183" as="geometry" />
        </mxCell>
        <mxCell id="YBwpSscH_KCri71rQ_eQ-3" value="使用传入的值并赋值给account" style="whiteSpace=wrap;strokeWidth=2;" vertex="1" parent="1">
          <mxGeometry x="55" y="574" width="232" height="34" as="geometry" />
        </mxCell>
        <mxCell id="YBwpSscH_KCri71rQ_eQ-4" value="从Redis获取account对应的对象" style="whiteSpace=wrap;strokeWidth=2;" vertex="1" parent="1">
          <mxGeometry x="374" y="658" width="238" height="34" as="geometry" />
        </mxCell>
        <mxCell id="YBwpSscH_KCri71rQ_eQ-5" value="存在默认值吗?" style="rhombus;strokeWidth=2;whiteSpace=wrap;" vertex="1" parent="1">
          <mxGeometry x="518" y="355" width="151" height="151" as="geometry" />
        </mxCell>
        <mxCell id="YBwpSscH_KCri71rQ_eQ-6" value="从元数据缓存中取默认值并赋值给account" style="whiteSpace=wrap;strokeWidth=2;" vertex="1" parent="1">
          <mxGeometry x="337" y="574" width="313" height="34" as="geometry" />
        </mxCell>
        <mxCell id="YBwpSscH_KCri71rQ_eQ-7" value="Redis中找到对象吗?" style="rhombus;strokeWidth=2;whiteSpace=wrap;" vertex="1" parent="1">
          <mxGeometry x="399" y="742" width="188" height="188" as="geometry" />
        </mxCell>
        <mxCell id="YBwpSscH_KCri71rQ_eQ-8" value="返回Redis中的对象" style="whiteSpace=wrap;strokeWidth=2;" vertex="1" parent="1">
          <mxGeometry x="20" y="1820" width="148" height="34" as="geometry" />
        </mxCell>
        <mxCell id="YBwpSscH_KCri71rQ_eQ-9" value="从数据库查找account对应的对象" style="whiteSpace=wrap;strokeWidth=2;" vertex="1" parent="1">
          <mxGeometry x="471" y="998" width="248" height="34" as="geometry" />
        </mxCell>
        <mxCell id="YBwpSscH_KCri71rQ_eQ-10" value="数据库中找到对象吗?" style="rhombus;strokeWidth=2;whiteSpace=wrap;" vertex="1" parent="1">
          <mxGeometry x="495" y="1082" width="199" height="199" as="geometry" />
        </mxCell>
        <mxCell id="YBwpSscH_KCri71rQ_eQ-11" value="缓存对象到Redis" style="whiteSpace=wrap;strokeWidth=2;" vertex="1" parent="1">
          <mxGeometry x="232" y="1736" width="133" height="34" as="geometry" />
        </mxCell>
        <mxCell id="YBwpSscH_KCri71rQ_eQ-12" value="返回数据库中的对象" style="whiteSpace=wrap;strokeWidth=2;" vertex="1" parent="1">
          <mxGeometry x="218" y="1820" width="159" height="34" as="geometry" />
        </mxCell>
        <mxCell id="YBwpSscH_KCri71rQ_eQ-13" value="调用第三方接口查询account对应的对象" style="whiteSpace=wrap;strokeWidth=2;" vertex="1" parent="1">
          <mxGeometry x="522" y="1350" width="296" height="34" as="geometry" />
        </mxCell>
        <mxCell id="YBwpSscH_KCri71rQ_eQ-14" value="第三方接口找到对象吗?" style="rhombus;strokeWidth=2;whiteSpace=wrap;" vertex="1" parent="1">
          <mxGeometry x="562" y="1452" width="215" height="215" as="geometry" />
        </mxCell>
        <mxCell id="YBwpSscH_KCri71rQ_eQ-15" value="存储对象到数据库" style="whiteSpace=wrap;strokeWidth=2;" vertex="1" parent="1">
          <mxGeometry x="451" y="1736" width="143" height="34" as="geometry" />
        </mxCell>
        <mxCell id="YBwpSscH_KCri71rQ_eQ-16" value="返回第三方接口中的对象" style="whiteSpace=wrap;strokeWidth=2;" vertex="1" parent="1">
          <mxGeometry x="427" y="1820" width="191" height="34" as="geometry" />
        </mxCell>
        <mxCell id="YBwpSscH_KCri71rQ_eQ-17" value="提示报错: 用户账号不合法" style="whiteSpace=wrap;strokeWidth=2;" vertex="1" parent="1">
          <mxGeometry x="668" y="1820" width="202" height="34" as="geometry" />
        </mxCell>
        <mxCell id="YBwpSscH_KCri71rQ_eQ-18" value="结束" style="whiteSpace=wrap;strokeWidth=2;" vertex="1" parent="1">
          <mxGeometry x="448" y="1904" width="47" height="34" as="geometry" />
        </mxCell>
        <mxCell id="YBwpSscH_KCri71rQ_eQ-19" value="" style="curved=1;startArrow=none;endArrow=block;exitX=0.5;exitY=0.99;entryX=0.5;entryY=0;rounded=0;" edge="1" parent="1" source="YBwpSscH_KCri71rQ_eQ-1" target="YBwpSscH_KCri71rQ_eQ-2">
          <mxGeometry relative="1" as="geometry">
            <Array as="points" />
          </mxGeometry>
        </mxCell>
        <mxCell id="YBwpSscH_KCri71rQ_eQ-20" value="是" style="curved=1;startArrow=none;endArrow=block;exitX=0;exitY=0.74;entryX=0.5;entryY=0.01;rounded=0;" edge="1" parent="1" source="YBwpSscH_KCri71rQ_eQ-2" target="YBwpSscH_KCri71rQ_eQ-3">
          <mxGeometry relative="1" as="geometry">
            <Array as="points">
              <mxPoint x="171" y="321" />
            </Array>
          </mxGeometry>
        </mxCell>
        <mxCell id="YBwpSscH_KCri71rQ_eQ-21" value="" style="curved=1;startArrow=none;endArrow=block;exitX=0.5;exitY=1;entryX=0;entryY=0.04;rounded=0;" edge="1" parent="1" source="YBwpSscH_KCri71rQ_eQ-3" target="YBwpSscH_KCri71rQ_eQ-4">
          <mxGeometry relative="1" as="geometry">
            <Array as="points">
              <mxPoint x="171" y="633" />
            </Array>
          </mxGeometry>
        </mxCell>
        <mxCell id="YBwpSscH_KCri71rQ_eQ-22" value="否" style="curved=1;startArrow=none;endArrow=block;exitX=1;exitY=0.89;entryX=0.5;entryY=0;rounded=0;" edge="1" parent="1" source="YBwpSscH_KCri71rQ_eQ-2" target="YBwpSscH_KCri71rQ_eQ-5">
          <mxGeometry relative="1" as="geometry">
            <Array as="points">
              <mxPoint x="593" y="321" />
            </Array>
          </mxGeometry>
        </mxCell>
        <mxCell id="YBwpSscH_KCri71rQ_eQ-23" value="是" style="curved=1;startArrow=none;endArrow=block;exitX=0.04;exitY=1;entryX=0.5;entryY=0.01;rounded=0;" edge="1" parent="1" source="YBwpSscH_KCri71rQ_eQ-5" target="YBwpSscH_KCri71rQ_eQ-6">
          <mxGeometry relative="1" as="geometry">
            <Array as="points">
              <mxPoint x="493" y="540" />
            </Array>
          </mxGeometry>
        </mxCell>
        <mxCell id="YBwpSscH_KCri71rQ_eQ-24" value="" style="curved=1;startArrow=none;endArrow=block;exitX=0.5;exitY=1;entryX=0.5;entryY=0;rounded=0;" edge="1" parent="1" source="YBwpSscH_KCri71rQ_eQ-6" target="YBwpSscH_KCri71rQ_eQ-4">
          <mxGeometry relative="1" as="geometry">
            <Array as="points" />
          </mxGeometry>
        </mxCell>
        <mxCell id="YBwpSscH_KCri71rQ_eQ-25" value="否" style="curved=1;startArrow=none;endArrow=block;exitX=0.95;exitY=1;entryX=0.84;entryY=0;rounded=0;" edge="1" parent="1" source="YBwpSscH_KCri71rQ_eQ-5" target="YBwpSscH_KCri71rQ_eQ-4">
          <mxGeometry relative="1" as="geometry">
            <Array as="points">
              <mxPoint x="693" y="540" />
              <mxPoint x="693" y="633" />
            </Array>
          </mxGeometry>
        </mxCell>
        <mxCell id="YBwpSscH_KCri71rQ_eQ-26" value="" style="curved=1;startArrow=none;endArrow=block;exitX=0.5;exitY=0.99;entryX=0.5;entryY=0;rounded=0;" edge="1" parent="1" source="YBwpSscH_KCri71rQ_eQ-4" target="YBwpSscH_KCri71rQ_eQ-7">
          <mxGeometry relative="1" as="geometry">
            <Array as="points" />
          </mxGeometry>
        </mxCell>
        <mxCell id="YBwpSscH_KCri71rQ_eQ-27" value="是" style="curved=1;startArrow=none;endArrow=block;exitX=0;exitY=0.66;entryX=0.5;entryY=0;rounded=0;" edge="1" parent="1" source="YBwpSscH_KCri71rQ_eQ-7" target="YBwpSscH_KCri71rQ_eQ-8">
          <mxGeometry relative="1" as="geometry">
            <Array as="points">
              <mxPoint x="94" y="964" />
            </Array>
          </mxGeometry>
        </mxCell>
        <mxCell id="YBwpSscH_KCri71rQ_eQ-28" value="否" style="curved=1;startArrow=none;endArrow=block;exitX=0.9;exitY=1;entryX=0.5;entryY=0.01;rounded=0;" edge="1" parent="1" source="YBwpSscH_KCri71rQ_eQ-7" target="YBwpSscH_KCri71rQ_eQ-9">
          <mxGeometry relative="1" as="geometry">
            <Array as="points">
              <mxPoint x="595" y="964" />
            </Array>
          </mxGeometry>
        </mxCell>
        <mxCell id="YBwpSscH_KCri71rQ_eQ-29" value="" style="curved=1;startArrow=none;endArrow=block;exitX=0.5;exitY=1;entryX=0.5;entryY=0;rounded=0;" edge="1" parent="1" source="YBwpSscH_KCri71rQ_eQ-9" target="YBwpSscH_KCri71rQ_eQ-10">
          <mxGeometry relative="1" as="geometry">
            <Array as="points" />
          </mxGeometry>
        </mxCell>
        <mxCell id="YBwpSscH_KCri71rQ_eQ-30" value="是" style="curved=1;startArrow=none;endArrow=block;exitX=0;exitY=0.73;entryX=0.5;entryY=0.01;rounded=0;" edge="1" parent="1" source="YBwpSscH_KCri71rQ_eQ-10" target="YBwpSscH_KCri71rQ_eQ-11">
          <mxGeometry relative="1" as="geometry">
            <Array as="points">
              <mxPoint x="298" y="1316" />
            </Array>
          </mxGeometry>
        </mxCell>
        <mxCell id="YBwpSscH_KCri71rQ_eQ-31" value="" style="curved=1;startArrow=none;endArrow=block;exitX=0.5;exitY=1;entryX=0.5;entryY=0;rounded=0;" edge="1" parent="1" source="YBwpSscH_KCri71rQ_eQ-11" target="YBwpSscH_KCri71rQ_eQ-12">
          <mxGeometry relative="1" as="geometry">
            <Array as="points" />
          </mxGeometry>
        </mxCell>
        <mxCell id="YBwpSscH_KCri71rQ_eQ-32" value="否" style="curved=1;startArrow=none;endArrow=block;exitX=0.78;exitY=1;entryX=0.5;entryY=0;rounded=0;" edge="1" parent="1" source="YBwpSscH_KCri71rQ_eQ-10" target="YBwpSscH_KCri71rQ_eQ-13">
          <mxGeometry relative="1" as="geometry">
            <Array as="points">
              <mxPoint x="670" y="1316" />
            </Array>
          </mxGeometry>
        </mxCell>
        <mxCell id="YBwpSscH_KCri71rQ_eQ-33" value="" style="curved=1;startArrow=none;endArrow=block;exitX=0.5;exitY=0.99;entryX=0.5;entryY=0;rounded=0;" edge="1" parent="1" source="YBwpSscH_KCri71rQ_eQ-13" target="YBwpSscH_KCri71rQ_eQ-14">
          <mxGeometry relative="1" as="geometry">
            <Array as="points" />
          </mxGeometry>
        </mxCell>
        <mxCell id="YBwpSscH_KCri71rQ_eQ-34" value="是" style="curved=1;startArrow=none;endArrow=block;exitX=0;exitY=0.99;entryX=0.5;entryY=0.01;rounded=0;" edge="1" parent="1" source="YBwpSscH_KCri71rQ_eQ-14" target="YBwpSscH_KCri71rQ_eQ-15">
          <mxGeometry relative="1" as="geometry">
            <Array as="points">
              <mxPoint x="523" y="1702" />
            </Array>
          </mxGeometry>
        </mxCell>
        <mxCell id="YBwpSscH_KCri71rQ_eQ-35" value="" style="curved=1;startArrow=none;endArrow=block;exitX=0.5;exitY=1;entryX=0.5;entryY=0;rounded=0;" edge="1" parent="1" source="YBwpSscH_KCri71rQ_eQ-15" target="YBwpSscH_KCri71rQ_eQ-16">
          <mxGeometry relative="1" as="geometry">
            <Array as="points" />
          </mxGeometry>
        </mxCell>
        <mxCell id="YBwpSscH_KCri71rQ_eQ-36" value="否" style="curved=1;startArrow=none;endArrow=block;exitX=0.85;exitY=1;entryX=0.5;entryY=0;rounded=0;" edge="1" parent="1" source="YBwpSscH_KCri71rQ_eQ-14" target="YBwpSscH_KCri71rQ_eQ-17">
          <mxGeometry relative="1" as="geometry">
            <Array as="points">
              <mxPoint x="769" y="1702" />
            </Array>
          </mxGeometry>
        </mxCell>
        <mxCell id="YBwpSscH_KCri71rQ_eQ-37" value="" style="curved=1;startArrow=none;endArrow=block;exitX=0.5;exitY=0.99;entryX=0.01;entryY=0.41;rounded=0;" edge="1" parent="1" source="YBwpSscH_KCri71rQ_eQ-8" target="YBwpSscH_KCri71rQ_eQ-18">
          <mxGeometry relative="1" as="geometry">
            <Array as="points">
              <mxPoint x="94" y="1879" />
            </Array>
          </mxGeometry>
        </mxCell>
        <mxCell id="YBwpSscH_KCri71rQ_eQ-38" value="" style="curved=1;startArrow=none;endArrow=block;exitX=0.5;exitY=0.99;entryX=0.01;entryY=0.32;rounded=0;" edge="1" parent="1" source="YBwpSscH_KCri71rQ_eQ-12" target="YBwpSscH_KCri71rQ_eQ-18">
          <mxGeometry relative="1" as="geometry">
            <Array as="points">
              <mxPoint x="298" y="1879" />
            </Array>
          </mxGeometry>
        </mxCell>
        <mxCell id="YBwpSscH_KCri71rQ_eQ-39" value="" style="curved=1;startArrow=none;endArrow=block;exitX=0.5;exitY=0.99;entryX=0.94;entryY=-0.01;rounded=0;" edge="1" parent="1" source="YBwpSscH_KCri71rQ_eQ-16" target="YBwpSscH_KCri71rQ_eQ-18">
          <mxGeometry relative="1" as="geometry">
            <Array as="points">
              <mxPoint x="523" y="1879" />
            </Array>
          </mxGeometry>
        </mxCell>
        <mxCell id="YBwpSscH_KCri71rQ_eQ-40" value="" style="curved=1;startArrow=none;endArrow=block;exitX=0.5;exitY=0.99;entryX=1.01;entryY=0.39;rounded=0;" edge="1" parent="1" source="YBwpSscH_KCri71rQ_eQ-17" target="YBwpSscH_KCri71rQ_eQ-18">
          <mxGeometry relative="1" as="geometry">
            <Array as="points">
              <mxPoint x="769" y="1879" />
            </Array>
          </mxGeometry>
        </mxCell>
      </root>
    </mxGraphModel>
  </diagram>
</mxfile>
